<svg width="1440" height="517" viewBox="0 0 1440 517" fill="none" xmlns="http://www.w3.org/2000/svg">
<path fill-rule="evenodd" clip-rule="evenodd" d="M0 299.386L60 312.784C120 326.182 240 352.979 360 393.174C480 433.368 600 486.961 720 507.058C840 527.156 960 513.758 1080 493.66C1200 473.563 1320 446.766 1380 433.368L1440 419.97V138.607H1380C1320 138.607 1200 138.607 1080 138.607C960 138.607 840 138.607 720 138.607C600 138.607 480 138.607 360 138.607C240 138.607 120 138.607 60 138.607H0V299.386ZM0 -308H1440V138.607H0V-308Z" fill="#184C99"/>
<path d="M0 299.386L60 312.784C120 326.182 240 352.979 360 393.174C480 433.368 600 486.961 720 507.058C840 527.156 960 513.758 1080 493.66C1200 473.563 1320 446.766 1380 433.368L1440 419.97V138.607H1380C1320 138.607 1200 138.607 1080 138.607C960 138.607 840 138.607 720 138.607C600 138.607 480 138.607 360 138.607C240 138.607 120 138.607 60 138.607H0V299.386ZM0 -308H1440V138.607H0V-308Z" fill="#184C99"/>
</svg>
